<mxfile host="app.diagrams.net" modified="2023-05-16T14:11:12.739Z" agent="Mozilla/5.0 (Windows NT 10.0; Win64; x64) AppleWebKit/537.36 (KHTML, like Gecko) Chrome/113.0.0.0 Safari/537.36 Edg/113.0.1774.42" etag="2Qwomf99fmQiUUYNmtXE" version="21.2.9" type="github">
  <diagram name="第 1 页" id="qN9vihlYFWbMOSYPV-8a">
    <mxGraphModel dx="1258" dy="642" grid="1" gridSize="10" guides="1" tooltips="1" connect="1" arrows="1" fold="1" page="1" pageScale="1" pageWidth="827" pageHeight="1169" math="0" shadow="0">
      <root>
        <mxCell id="0" />
        <mxCell id="1" parent="0" />
        <mxCell id="jRwzreYz2GqBpTQ5AHRV-1" value="应用程序" style="rounded=0;whiteSpace=wrap;html=1;" vertex="1" parent="1">
          <mxGeometry x="90" y="100" width="260" height="60" as="geometry" />
        </mxCell>
        <mxCell id="jRwzreYz2GqBpTQ5AHRV-2" value="TCP/IP Stack" style="rounded=0;whiteSpace=wrap;html=1;" vertex="1" parent="1">
          <mxGeometry x="90" y="240" width="550" height="60" as="geometry" />
        </mxCell>
        <mxCell id="jRwzreYz2GqBpTQ5AHRV-3" value="OpenVPN" style="rounded=0;whiteSpace=wrap;html=1;" vertex="1" parent="1">
          <mxGeometry x="520" y="100" width="120" height="60" as="geometry" />
        </mxCell>
        <mxCell id="jRwzreYz2GqBpTQ5AHRV-4" value="" style="endArrow=none;dashed=1;html=1;rounded=0;" edge="1" parent="1">
          <mxGeometry width="50" height="50" relative="1" as="geometry">
            <mxPoint x="90" y="200" as="sourcePoint" />
            <mxPoint x="690" y="200" as="targetPoint" />
          </mxGeometry>
        </mxCell>
        <mxCell id="jRwzreYz2GqBpTQ5AHRV-5" value="用户空间" style="text;html=1;align=center;verticalAlign=middle;resizable=0;points=[];autosize=1;strokeColor=none;fillColor=none;" vertex="1" parent="1">
          <mxGeometry x="710" y="115" width="70" height="30" as="geometry" />
        </mxCell>
        <mxCell id="jRwzreYz2GqBpTQ5AHRV-7" value="内核空间" style="text;html=1;align=center;verticalAlign=middle;resizable=0;points=[];autosize=1;strokeColor=none;fillColor=none;" vertex="1" parent="1">
          <mxGeometry x="720" y="255" width="70" height="30" as="geometry" />
        </mxCell>
        <mxCell id="jRwzreYz2GqBpTQ5AHRV-8" value="路由表" style="ellipse;whiteSpace=wrap;html=1;" vertex="1" parent="1">
          <mxGeometry x="300" y="330" width="200" height="60" as="geometry" />
        </mxCell>
        <mxCell id="jRwzreYz2GqBpTQ5AHRV-11" style="edgeStyle=orthogonalEdgeStyle;rounded=0;orthogonalLoop=1;jettySize=auto;html=1;exitX=0.5;exitY=0;exitDx=0;exitDy=0;entryX=0.362;entryY=1;entryDx=0;entryDy=0;entryPerimeter=0;startArrow=classic;startFill=1;endArrow=classic;endFill=1;" edge="1" parent="1" source="jRwzreYz2GqBpTQ5AHRV-9" target="jRwzreYz2GqBpTQ5AHRV-1">
          <mxGeometry relative="1" as="geometry" />
        </mxCell>
        <mxCell id="jRwzreYz2GqBpTQ5AHRV-14" style="edgeStyle=orthogonalEdgeStyle;rounded=0;orthogonalLoop=1;jettySize=auto;html=1;entryX=0.25;entryY=1;entryDx=0;entryDy=0;exitX=0.25;exitY=1;exitDx=0;exitDy=0;startArrow=classic;startFill=1;" edge="1" parent="1" source="jRwzreYz2GqBpTQ5AHRV-9" target="jRwzreYz2GqBpTQ5AHRV-3">
          <mxGeometry relative="1" as="geometry">
            <Array as="points">
              <mxPoint x="138" y="570" />
              <mxPoint x="30" y="570" />
              <mxPoint x="30" y="180" />
              <mxPoint x="550" y="180" />
            </Array>
          </mxGeometry>
        </mxCell>
        <mxCell id="jRwzreYz2GqBpTQ5AHRV-9" value="TUN/TAP NIC" style="rounded=0;whiteSpace=wrap;html=1;strokeColor=#fa0000;strokeWidth=3;" vertex="1" parent="1">
          <mxGeometry x="90" y="440" width="190" height="90" as="geometry" />
        </mxCell>
        <mxCell id="jRwzreYz2GqBpTQ5AHRV-12" style="edgeStyle=orthogonalEdgeStyle;rounded=0;orthogonalLoop=1;jettySize=auto;html=1;exitX=0.75;exitY=0;exitDx=0;exitDy=0;entryX=0.6;entryY=0.983;entryDx=0;entryDy=0;entryPerimeter=0;startArrow=classic;startFill=1;" edge="1" parent="1" source="jRwzreYz2GqBpTQ5AHRV-10" target="jRwzreYz2GqBpTQ5AHRV-3">
          <mxGeometry relative="1" as="geometry" />
        </mxCell>
        <mxCell id="jRwzreYz2GqBpTQ5AHRV-17" style="edgeStyle=orthogonalEdgeStyle;rounded=0;orthogonalLoop=1;jettySize=auto;html=1;entryX=0.805;entryY=0.067;entryDx=0;entryDy=0;entryPerimeter=0;startArrow=classic;startFill=1;strokeWidth=7;" edge="1" parent="1" source="jRwzreYz2GqBpTQ5AHRV-10" target="jRwzreYz2GqBpTQ5AHRV-15">
          <mxGeometry relative="1" as="geometry" />
        </mxCell>
        <mxCell id="jRwzreYz2GqBpTQ5AHRV-10" value="Hardware NIC" style="rounded=0;whiteSpace=wrap;html=1;" vertex="1" parent="1">
          <mxGeometry x="450" y="450" width="190" height="90" as="geometry" />
        </mxCell>
        <mxCell id="jRwzreYz2GqBpTQ5AHRV-15" value="以太网" style="rounded=0;whiteSpace=wrap;html=1;" vertex="1" parent="1">
          <mxGeometry x="70" y="610" width="590" height="30" as="geometry" />
        </mxCell>
      </root>
    </mxGraphModel>
  </diagram>
</mxfile>
